<mxfile host="app.diagrams.net" modified="2023-12-12T12:04:04.585Z" agent="Mozilla/5.0 (Windows NT 10.0; Win64; x64) AppleWebKit/537.36 (KHTML, like Gecko) Chrome/119.0.0.0 Safari/537.36" etag="yPdyJHYJTlv_YmHMaKKG" version="22.1.7" type="github">
  <diagram name="Page-1" id="2YBvvXClWsGukQMizWep">
    <mxGraphModel dx="1298" dy="1376" grid="1" gridSize="10" guides="1" tooltips="1" connect="1" arrows="1" fold="1" page="1" pageScale="1" pageWidth="850" pageHeight="1100" math="0" shadow="0">
      <root>
        <mxCell id="0" />
        <mxCell id="1" parent="0" />
        <mxCell id="s8Bu4JsSmLwlcBo6CQIp-1" value="User" style="shape=umlActor;verticalLabelPosition=bottom;verticalAlign=top;html=1;outlineConnect=0;" vertex="1" parent="1">
          <mxGeometry x="90" y="50" width="30" height="60" as="geometry" />
        </mxCell>
        <mxCell id="s8Bu4JsSmLwlcBo6CQIp-3" value="" style="endArrow=none;dashed=1;html=1;rounded=0;" edge="1" parent="1" source="s8Bu4JsSmLwlcBo6CQIp-8">
          <mxGeometry width="50" height="50" relative="1" as="geometry">
            <mxPoint x="110" y="470" as="sourcePoint" />
            <mxPoint x="105" y="130" as="targetPoint" />
          </mxGeometry>
        </mxCell>
        <mxCell id="s8Bu4JsSmLwlcBo6CQIp-4" value="LoginPage:Login" style="rounded=0;whiteSpace=wrap;html=1;" vertex="1" parent="1">
          <mxGeometry x="240" y="50" width="120" height="60" as="geometry" />
        </mxCell>
        <mxCell id="s8Bu4JsSmLwlcBo6CQIp-5" value="" style="endArrow=none;dashed=1;html=1;rounded=0;entryX=0.5;entryY=1;entryDx=0;entryDy=0;" edge="1" parent="1" source="s8Bu4JsSmLwlcBo6CQIp-13" target="s8Bu4JsSmLwlcBo6CQIp-4">
          <mxGeometry width="50" height="50" relative="1" as="geometry">
            <mxPoint x="310" y="470" as="sourcePoint" />
            <mxPoint x="470" y="240" as="targetPoint" />
          </mxGeometry>
        </mxCell>
        <mxCell id="s8Bu4JsSmLwlcBo6CQIp-6" value="authentication:&lt;br&gt;Authientication Module" style="rounded=0;whiteSpace=wrap;html=1;" vertex="1" parent="1">
          <mxGeometry x="540" y="50" width="120" height="60" as="geometry" />
        </mxCell>
        <mxCell id="s8Bu4JsSmLwlcBo6CQIp-7" value="" style="endArrow=none;dashed=1;html=1;rounded=0;entryX=0.5;entryY=1;entryDx=0;entryDy=0;" edge="1" parent="1" target="s8Bu4JsSmLwlcBo6CQIp-6" source="s8Bu4JsSmLwlcBo6CQIp-23">
          <mxGeometry width="50" height="50" relative="1" as="geometry">
            <mxPoint x="610" y="470" as="sourcePoint" />
            <mxPoint x="770" y="240" as="targetPoint" />
          </mxGeometry>
        </mxCell>
        <mxCell id="s8Bu4JsSmLwlcBo6CQIp-10" value="" style="endArrow=none;dashed=1;html=1;rounded=0;exitX=0.027;exitY=1.01;exitDx=0;exitDy=0;exitPerimeter=0;" edge="1" parent="1" source="s8Bu4JsSmLwlcBo6CQIp-36" target="s8Bu4JsSmLwlcBo6CQIp-8">
          <mxGeometry width="50" height="50" relative="1" as="geometry">
            <mxPoint x="105" y="560" as="sourcePoint" />
            <mxPoint x="105" y="380" as="targetPoint" />
          </mxGeometry>
        </mxCell>
        <mxCell id="s8Bu4JsSmLwlcBo6CQIp-8" value="" style="html=1;points=[[0,0,0,0,5],[0,1,0,0,-5],[1,0,0,0,5],[1,1,0,0,-5]];perimeter=orthogonalPerimeter;outlineConnect=0;targetShapes=umlLifeline;portConstraint=eastwest;newEdgeStyle={&quot;curved&quot;:0,&quot;rounded&quot;:0};" vertex="1" parent="1">
          <mxGeometry x="95" y="190" width="20" height="110" as="geometry" />
        </mxCell>
        <mxCell id="s8Bu4JsSmLwlcBo6CQIp-11" value="" style="endArrow=block;endFill=1;html=1;edgeStyle=orthogonalEdgeStyle;align=left;verticalAlign=top;rounded=0;exitX=1;exitY=0;exitDx=0;exitDy=5;exitPerimeter=0;entryX=0;entryY=0;entryDx=0;entryDy=5;entryPerimeter=0;" edge="1" parent="1" source="s8Bu4JsSmLwlcBo6CQIp-8" target="s8Bu4JsSmLwlcBo6CQIp-13">
          <mxGeometry x="-1" relative="1" as="geometry">
            <mxPoint x="370" y="270" as="sourcePoint" />
            <mxPoint x="220" y="180" as="targetPoint" />
          </mxGeometry>
        </mxCell>
        <mxCell id="s8Bu4JsSmLwlcBo6CQIp-14" value="" style="endArrow=none;dashed=1;html=1;rounded=0;entryX=0.5;entryY=1;entryDx=0;entryDy=0;exitX=0.375;exitY=1.015;exitDx=0;exitDy=0;exitPerimeter=0;" edge="1" parent="1" source="s8Bu4JsSmLwlcBo6CQIp-36" target="s8Bu4JsSmLwlcBo6CQIp-13">
          <mxGeometry width="50" height="50" relative="1" as="geometry">
            <mxPoint x="300" y="560" as="sourcePoint" />
            <mxPoint x="300" y="110" as="targetPoint" />
          </mxGeometry>
        </mxCell>
        <mxCell id="s8Bu4JsSmLwlcBo6CQIp-13" value="" style="html=1;points=[[0,0,0,0,5],[0,1,0,0,-5],[1,0,0,0,5],[1,1,0,0,-5]];perimeter=orthogonalPerimeter;outlineConnect=0;targetShapes=umlLifeline;portConstraint=eastwest;newEdgeStyle={&quot;curved&quot;:0,&quot;rounded&quot;:0};" vertex="1" parent="1">
          <mxGeometry x="290" y="190" width="20" height="110" as="geometry" />
        </mxCell>
        <mxCell id="s8Bu4JsSmLwlcBo6CQIp-15" value="phoneNumber" style="text;html=1;align=center;verticalAlign=middle;resizable=0;points=[];autosize=1;strokeColor=none;fillColor=none;" vertex="1" parent="1">
          <mxGeometry x="140" y="168" width="100" height="30" as="geometry" />
        </mxCell>
        <mxCell id="s8Bu4JsSmLwlcBo6CQIp-16" value="" style="endArrow=block;endFill=1;html=1;edgeStyle=orthogonalEdgeStyle;align=left;verticalAlign=top;rounded=0;exitX=1;exitY=0;exitDx=0;exitDy=5;exitPerimeter=0;entryX=0;entryY=0;entryDx=0;entryDy=5;entryPerimeter=0;" edge="1" parent="1">
          <mxGeometry x="-1" relative="1" as="geometry">
            <mxPoint x="115" y="240" as="sourcePoint" />
            <mxPoint x="290" y="240" as="targetPoint" />
          </mxGeometry>
        </mxCell>
        <mxCell id="s8Bu4JsSmLwlcBo6CQIp-17" value="passowrd" style="text;html=1;align=center;verticalAlign=middle;resizable=0;points=[];autosize=1;strokeColor=none;fillColor=none;" vertex="1" parent="1">
          <mxGeometry x="155" y="220" width="70" height="30" as="geometry" />
        </mxCell>
        <mxCell id="s8Bu4JsSmLwlcBo6CQIp-19" value="" style="endArrow=block;endFill=1;html=1;edgeStyle=orthogonalEdgeStyle;align=left;verticalAlign=top;rounded=0;exitX=1;exitY=0;exitDx=0;exitDy=5;exitPerimeter=0;entryX=0;entryY=0;entryDx=0;entryDy=5;entryPerimeter=0;" edge="1" parent="1">
          <mxGeometry x="-1" relative="1" as="geometry">
            <mxPoint x="115" y="280" as="sourcePoint" />
            <mxPoint x="290" y="280" as="targetPoint" />
          </mxGeometry>
        </mxCell>
        <mxCell id="s8Bu4JsSmLwlcBo6CQIp-20" value="Login Button" style="text;html=1;align=center;verticalAlign=middle;resizable=0;points=[];autosize=1;strokeColor=none;fillColor=none;" vertex="1" parent="1">
          <mxGeometry x="145" y="260" width="90" height="30" as="geometry" />
        </mxCell>
        <mxCell id="s8Bu4JsSmLwlcBo6CQIp-21" value="" style="endArrow=block;endFill=1;html=1;edgeStyle=orthogonalEdgeStyle;align=left;verticalAlign=top;rounded=0;exitX=1;exitY=1;exitDx=0;exitDy=-5;exitPerimeter=0;" edge="1" parent="1" source="s8Bu4JsSmLwlcBo6CQIp-13" target="s8Bu4JsSmLwlcBo6CQIp-23">
          <mxGeometry x="-1" relative="1" as="geometry">
            <mxPoint x="370" y="270" as="sourcePoint" />
            <mxPoint x="500" y="285" as="targetPoint" />
            <Array as="points">
              <mxPoint x="310" y="290" />
            </Array>
          </mxGeometry>
        </mxCell>
        <mxCell id="s8Bu4JsSmLwlcBo6CQIp-24" value="" style="endArrow=none;dashed=1;html=1;rounded=0;entryX=0.5;entryY=1;entryDx=0;entryDy=0;exitX=0.911;exitY=1.01;exitDx=0;exitDy=0;exitPerimeter=0;" edge="1" parent="1" source="s8Bu4JsSmLwlcBo6CQIp-36" target="s8Bu4JsSmLwlcBo6CQIp-23">
          <mxGeometry width="50" height="50" relative="1" as="geometry">
            <mxPoint x="600" y="560" as="sourcePoint" />
            <mxPoint x="600" y="110" as="targetPoint" />
          </mxGeometry>
        </mxCell>
        <mxCell id="s8Bu4JsSmLwlcBo6CQIp-23" value="" style="html=1;points=[[0,0,0,0,5],[0,1,0,0,-5],[1,0,0,0,5],[1,1,0,0,-5]];perimeter=orthogonalPerimeter;outlineConnect=0;targetShapes=umlLifeline;portConstraint=eastwest;newEdgeStyle={&quot;curved&quot;:0,&quot;rounded&quot;:0};" vertex="1" parent="1">
          <mxGeometry x="590" y="240" width="20" height="370" as="geometry" />
        </mxCell>
        <mxCell id="s8Bu4JsSmLwlcBo6CQIp-25" value="send user login info" style="text;html=1;align=center;verticalAlign=middle;resizable=0;points=[];autosize=1;strokeColor=none;fillColor=none;" vertex="1" parent="1">
          <mxGeometry x="370" y="270" width="130" height="30" as="geometry" />
        </mxCell>
        <mxCell id="s8Bu4JsSmLwlcBo6CQIp-35" value="validate the info" style="html=1;align=left;spacingLeft=2;endArrow=block;rounded=0;edgeStyle=orthogonalEdgeStyle;curved=0;rounded=0;" edge="1" parent="1">
          <mxGeometry x="0.0118" relative="1" as="geometry">
            <mxPoint x="610" y="320" as="sourcePoint" />
            <Array as="points">
              <mxPoint x="640" y="320" />
              <mxPoint x="640" y="350" />
            </Array>
            <mxPoint x="615" y="350" as="targetPoint" />
            <mxPoint as="offset" />
          </mxGeometry>
        </mxCell>
        <mxCell id="s8Bu4JsSmLwlcBo6CQIp-36" value="frame" style="shape=umlFrame;whiteSpace=wrap;html=1;pointerEvents=0;" vertex="1" parent="1">
          <mxGeometry x="90" y="450" width="560" height="200" as="geometry" />
        </mxCell>
        <mxCell id="s8Bu4JsSmLwlcBo6CQIp-37" value="" style="endArrow=none;dashed=1;html=1;rounded=0;exitX=0.018;exitY=0.45;exitDx=0;exitDy=0;exitPerimeter=0;entryX=1.009;entryY=0.445;entryDx=0;entryDy=0;entryPerimeter=0;" edge="1" parent="1" source="s8Bu4JsSmLwlcBo6CQIp-36" target="s8Bu4JsSmLwlcBo6CQIp-36">
          <mxGeometry width="50" height="50" relative="1" as="geometry">
            <mxPoint x="310" y="663" as="sourcePoint" />
            <mxPoint x="310" y="310" as="targetPoint" />
          </mxGeometry>
        </mxCell>
        <mxCell id="s8Bu4JsSmLwlcBo6CQIp-38" value="if valid" style="text;html=1;align=center;verticalAlign=middle;resizable=0;points=[];autosize=1;strokeColor=none;fillColor=none;" vertex="1" parent="1">
          <mxGeometry x="20" y="480" width="60" height="30" as="geometry" />
        </mxCell>
        <mxCell id="s8Bu4JsSmLwlcBo6CQIp-39" value="" style="html=1;points=[[0,0,0,0,5],[0,1,0,0,-5],[1,0,0,0,5],[1,1,0,0,-5]];perimeter=orthogonalPerimeter;outlineConnect=0;targetShapes=umlLifeline;portConstraint=eastwest;newEdgeStyle={&quot;curved&quot;:0,&quot;rounded&quot;:0};" vertex="1" parent="1">
          <mxGeometry x="290" y="450" width="20" height="90" as="geometry" />
        </mxCell>
        <mxCell id="s8Bu4JsSmLwlcBo6CQIp-41" value="Accepted" style="html=1;verticalAlign=bottom;endArrow=open;dashed=1;endSize=8;curved=0;rounded=0;" edge="1" parent="1" target="s8Bu4JsSmLwlcBo6CQIp-39">
          <mxGeometry relative="1" as="geometry">
            <mxPoint x="590" y="479" as="sourcePoint" />
            <mxPoint x="410" y="479" as="targetPoint" />
            <mxPoint as="offset" />
          </mxGeometry>
        </mxCell>
        <mxCell id="s8Bu4JsSmLwlcBo6CQIp-44" value="redirect to main page" style="html=1;align=left;spacingLeft=2;endArrow=block;rounded=0;edgeStyle=orthogonalEdgeStyle;curved=0;rounded=0;" edge="1" parent="1">
          <mxGeometry x="-0.0588" y="10" relative="1" as="geometry">
            <mxPoint x="310" y="490" as="sourcePoint" />
            <Array as="points">
              <mxPoint x="340" y="490" />
              <mxPoint x="340" y="520" />
            </Array>
            <mxPoint x="315" y="520" as="targetPoint" />
            <mxPoint as="offset" />
          </mxGeometry>
        </mxCell>
        <mxCell id="s8Bu4JsSmLwlcBo6CQIp-45" value="rejected(not correct data)" style="html=1;verticalAlign=bottom;endArrow=open;dashed=1;endSize=8;curved=0;rounded=0;" edge="1" parent="1">
          <mxGeometry relative="1" as="geometry">
            <mxPoint x="590" y="570" as="sourcePoint" />
            <mxPoint x="300" y="570" as="targetPoint" />
            <mxPoint as="offset" />
          </mxGeometry>
        </mxCell>
        <mxCell id="s8Bu4JsSmLwlcBo6CQIp-46" value="" style="html=1;verticalAlign=bottom;endArrow=open;dashed=1;endSize=8;curved=0;rounded=0;" edge="1" parent="1">
          <mxGeometry relative="1" as="geometry">
            <mxPoint x="300" y="610" as="sourcePoint" />
            <mxPoint x="110" y="610" as="targetPoint" />
            <mxPoint as="offset" />
          </mxGeometry>
        </mxCell>
      </root>
    </mxGraphModel>
  </diagram>
</mxfile>
